<svg width="21" height="32" viewBox="0 0 21 32" fill="none" xmlns="http://www.w3.org/2000/svg">
<path d="M20.9738 25.4306L19.2576 6.88931C19.0347 4.48269 17.093 2.66663 14.7415 2.66663H12.3875C12.2591 1.66663 11.8483 0 10.5014 0C9.15461 0 8.74374 1.66669 8.61542 2.66669H6.25885C3.90745 2.66669 1.9657 4.48269 1.74277 6.88938L0.0265067 25.4306C-0.130318 27.1093 0.414103 28.788 1.51722 30.0359C2.43241 31.0719 3.67674 31.7133 5.01063 31.9106C5.10262 31.9626 5.20246 32 5.31523 32H15.6852C15.7979 32 15.8977 31.9627 15.9898 31.9106C17.3223 31.7133 18.568 31.0719 19.4831 30.0359C20.5862 28.7893 21.1294 27.1093 20.9738 25.4306ZM10.5015 1.33331C10.7102 1.33331 10.9526 1.94131 11.0744 2.66663H9.92853C10.0504 1.94 10.2928 1.33331 10.5015 1.33331ZM6.25891 4H14.7415C15.5906 4 16.3631 4.33331 16.9425 4.884L15.8122 12.632C15.448 15.1294 13.536 16.98 11.1483 17.2733V16.6667C11.1483 16.2987 10.8579 16.0001 10.5002 16.0001C10.1424 16.0001 9.85203 16.2987 9.85203 16.6667V17.2747C7.46952 16.9853 5.55238 15.1333 5.18812 12.632L4.05911 4.88263C4.63731 4.332 5.40989 4 6.25891 4ZM15.037 30.6666H5.96331V27.3333C5.96331 26.2306 6.83566 25.3333 7.90767 25.3333H13.0927C14.1647 25.3333 15.037 26.2306 15.037 27.3333V30.6666ZM18.5238 29.1386H18.5239C17.9354 29.8066 17.1667 30.2599 16.3333 30.4906V27.3333C16.3333 25.4959 14.8789 23.9999 13.0927 23.9999H7.90767C6.12141 23.9999 4.66709 25.4959 4.66709 27.3333V30.4906C3.83357 30.2612 3.06627 29.8066 2.4764 29.1399C1.61833 28.1693 1.19568 26.8626 1.31623 25.5572L3.03249 7.01725C3.03504 6.99056 3.04416 6.96525 3.04671 6.93856L3.90611 12.8306C4.36626 15.9852 6.81743 18.3066 9.85197 18.6066V20.6666C9.85197 21.0346 10.1423 21.3333 10.5001 21.3333C10.8579 21.3333 11.1483 21.0346 11.1483 20.6666V18.6079C14.1788 18.3119 16.6339 15.9893 17.0941 12.8306L17.9535 6.93862C17.9561 6.96531 17.9652 6.99062 17.9678 7.01731L19.684 25.5573C19.8045 26.8639 19.3819 28.1693 18.5238 29.1386Z" fill="#294A70"/>
</svg>
