<svg width="33" height="33" viewBox="0 0 33 33" fill="none" xmlns="http://www.w3.org/2000/svg">
<path d="M8.25004 3.00003C8.70454 3.00003 9.1795 3.06014 9.67274 3.15176C11.3246 1.22618 13.7698 0 16.5 0C19.2302 0 21.6755 1.22618 23.3273 3.15169C23.8206 3.06014 24.2955 2.99996 24.75 2.99996C29.2991 3.00003 33 6.70093 33 11.25C33 14.3672 31.2422 17.2009 28.4824 18.602L28.4971 29.9363C28.4978 30.7544 28.1799 31.5234 27.602 32.102C27.0234 32.6814 26.2551 33 25.437 33H7.56006C5.87256 33 4.49999 31.6274 4.49999 29.9399V18.5911C1.7505 17.1863 0 14.3569 0 11.25C7.24792e-05 6.70093 3.70097 3.00003 8.25004 3.00003ZM6.00004 29.94C6.00004 30.7999 6.70021 31.5001 7.56013 31.5001H25.4371C25.8538 31.5001 26.2457 31.3375 26.5408 31.0424C26.8353 30.7472 26.9979 30.3553 26.9971 29.9379L26.9932 27H6.00004V29.94ZM5.5357 17.4236C5.57528 17.4397 5.61262 17.4587 5.64777 17.4815C5.74227 17.54 5.8199 17.6177 5.87777 17.707C5.93634 17.7956 5.97592 17.8982 5.99202 18.008C5.99863 18.0498 6.00081 18.0916 6.00011 18.134V25.5H26.9913L26.9817 18.1442C26.981 18.1032 26.9832 18.0615 26.989 18.0212C27.0051 17.9076 27.0469 17.8022 27.1077 17.7106C27.1648 17.6249 27.2395 17.5502 27.3304 17.4931C27.3677 17.4696 27.4073 17.4491 27.4483 17.4322C29.9099 16.3558 31.5 13.9314 31.5 11.25C31.5 7.5278 28.4722 4.5 24.75 4.5C24.6046 4.5 24.451 4.51758 24.3003 4.52946C25.0591 5.84825 25.5001 7.3722 25.5001 9.00001C25.5001 9.41457 25.1646 9.75003 24.75 9.75003C24.3355 9.75003 24 9.41457 24 9.00001C24 4.86471 20.6353 1.49998 16.5 1.49998C12.3647 1.49998 9.00006 4.86471 9.00006 9.00001C9.00006 9.41457 8.6646 9.75003 8.25004 9.75003C7.83547 9.75003 7.50002 9.41457 7.50002 9.00001C7.50002 7.3722 7.94094 5.84832 8.69975 4.52946C8.54907 4.51758 8.39551 4.5 8.25004 4.5C4.52784 4.5 1.50005 7.52787 1.50005 11.25C1.50005 13.9219 3.08355 16.3432 5.5357 17.4236Z" fill="#294A70"/>
</svg>
