<svg width="21" height="20" viewBox="0 0 21 20" fill="none" xmlns="http://www.w3.org/2000/svg">
<path d="M10.824 4.8C8.02402 4.8 5.62402 7.1 5.62402 10C5.62402 12.9 7.92402 15.2 10.824 15.2C13.724 15.2 16.024 12.9 16.024 10C16.024 7.1 13.624 4.8 10.824 4.8ZM10.824 13.3C9.02402 13.3 7.52402 11.8 7.52402 10C7.52402 8.2 9.02402 6.7 10.824 6.7C12.624 6.7 14.124 8.2 14.124 10C14.124 11.8 12.624 13.3 10.824 13.3ZM16.224 5.9C16.5423 5.9 16.8475 5.77357 17.0726 5.54853C17.2976 5.32348 17.424 5.01826 17.424 4.7C17.424 4.38174 17.2976 4.07652 17.0726 3.85147C16.8475 3.62643 16.5423 3.5 16.224 3.5C15.9058 3.5 15.6005 3.62643 15.3755 3.85147C15.1505 4.07652 15.024 4.38174 15.024 4.7C15.024 5.01826 15.1505 5.32348 15.3755 5.54853C15.6005 5.77357 15.9058 5.9 16.224 5.9Z" fill="#294A70"/>
<path d="M19.2242 1.7C18.2242 0.6 16.7242 0 15.0242 0H6.62422C3.12422 0 0.824219 2.3 0.824219 5.8V14.1C0.824219 15.8 1.42422 17.3 2.52422 18.4C3.62422 19.4 5.02422 20 6.72422 20H14.9242C16.6242 20 18.1242 19.4 19.1242 18.4C20.2242 17.4 20.8242 15.9 20.8242 14.1V5.8C20.8242 4.2 20.2242 2.7 19.2242 1.7ZM19.0242 14.2C19.0242 15.4 18.6242 16.5 17.8242 17.1C17.1242 17.8 16.1242 18.1 14.9242 18.1H6.72422C5.52422 18.1 4.52422 17.7 3.82422 17.1C3.12422 16.4 2.72422 15.4 2.72422 14.1V5.8C2.72422 4.6 3.12422 3.6 3.82422 2.9C4.52422 2.2 5.52422 1.9 6.72422 1.9H15.0242C16.2242 1.9 17.2242 2.3 17.9242 3C18.6242 3.7 19.0242 4.7 19.0242 5.9V14.2Z" fill="#294A70"/>
</svg>
