<svg width="26" height="33" viewBox="0 0 26 33" fill="none" xmlns="http://www.w3.org/2000/svg">
<path d="M8.10221 17.1L5.27715 27.9H20.7854L17.9604 17.1H8.10221ZM1.5 27.9H4.03679L10.9821 1.34819C11.0156 1.21983 11.0908 1.1062 11.1958 1.02511C11.3009 0.944009 11.4298 0.900012 11.5625 0.9H14.5C14.6327 0.900012 14.7616 0.944009 14.8667 1.02511C14.9717 1.1062 15.0469 1.21983 15.0804 1.3482L22.0257 27.9H24.5C24.6591 27.9 24.8117 27.9632 24.9243 28.0757C25.0368 28.1883 25.1 28.3409 25.1 28.5V31.5C25.1 31.6591 25.0368 31.8117 24.9243 31.9243C24.8117 32.0368 24.6591 32.1 24.5 32.1H1.5C1.34087 32.1 1.18826 32.0368 1.07574 31.9243C0.963213 31.8117 0.9 31.6591 0.9 31.5V28.5C0.9 28.3409 0.963213 28.1883 1.07574 28.0757C1.18826 27.9632 1.34087 27.9 1.5 27.9ZM9.67158 11.1L8.41602 15.9H17.6465L16.3909 11.1H9.67158ZM16.0767 9.9L14.0367 2.1H12.0258L9.98546 9.9H16.0767ZM2.1 30.9H23.9V29.1H2.1V30.9Z" fill="#294A70" stroke="#294A70" stroke-width="0.2"/>
</svg>
