<svg width="40" height="22" viewBox="0 0 40 22" fill="none" xmlns="http://www.w3.org/2000/svg">
<path d="M38.9741 6.9294L38.6436 5.02605C38.5221 4.32596 37.8377 3.94161 37.1582 4.05923L25.17 6.13411C24.7844 6.20086 24.4652 6.40454 24.2977 6.64222C24.0932 6.93251 24.0458 7.24813 24.0971 7.54383L24.1273 7.71768L21.1383 8.23501C20.5137 5.83046 19.1168 3.74649 17.0962 2.32298C14.8363 0.730836 12.1307 0.112649 9.37984 0.588754C3.78571 1.55697 0.0342013 6.8815 1.00488 12.4751C1.44477 15.2796 2.9379 17.6196 5.19774 19.2117C7.45762 20.8038 10.1633 21.422 12.9141 20.9459C15.6649 20.4698 18.0044 18.9784 19.5957 16.7197C21.0173 14.7019 21.6679 12.2191 21.4105 9.79397L24.398 9.2769L24.4282 9.45086C24.4801 9.74972 24.6864 10.0671 24.921 10.2324C25.2055 10.4328 25.5763 10.5251 25.9205 10.4165L37.9018 8.3428C38.2447 8.28345 38.5512 8.09201 38.7529 7.83629C38.9539 7.58133 39.0555 7.25558 38.9741 6.9294ZM18.3288 15.9068C16.9928 17.8032 14.9563 19.1267 12.6218 19.5307C10.2868 19.9348 7.9763 19.4102 6.02593 18.0361C4.07572 16.6622 2.80407 14.6633 2.39861 12.3288C1.60944 7.51596 4.83877 2.93401 9.59716 2.11044C11.9321 1.70632 14.2426 2.23095 16.193 3.60504C18.1434 4.97912 19.4151 6.97825 19.8204 9.31297C20.2258 11.6477 19.7022 13.9575 18.3288 15.9068ZM37.4576 6.90716L25.8481 8.91649L25.6143 7.56975L37.2237 5.56042L37.4576 6.90716Z" fill="#294A70" stroke="#294A70" stroke-width="0.2"/>
</svg>
