<svg width="34" height="34" viewBox="0 0 34 34" fill="none" xmlns="http://www.w3.org/2000/svg">
<path d="M32.7036 4.81664L32.7036 4.8167C33.1256 5.9536 33.2128 7.18764 32.9549 8.37259C32.697 9.55753 32.1047 10.6437 31.2484 11.5024L31.2483 11.5024L30.977 11.774L30.977 11.774C30.2225 12.5284 29.2857 13.075 28.2577 13.3607C27.2478 13.6413 26.1835 13.6607 25.1646 13.4177L13.4168 25.165C13.6599 26.1839 13.6404 27.2481 13.3598 28.258C13.0741 29.286 12.5275 30.2227 11.773 30.9772L11.5015 31.2487L11.5014 31.2488C10.6429 32.1052 9.55673 32.6974 8.37179 32.9552C7.18685 33.2129 5.95283 33.1254 4.81614 32.7029L4.81611 32.7029C4.7317 32.6715 4.65653 32.6194 4.59752 32.5514C4.5385 32.4833 4.49754 32.4016 4.47839 32.3136C4.45924 32.2256 4.46252 32.1342 4.48793 32.0477C4.51333 31.9614 4.56003 31.8828 4.62374 31.8191L32.7036 4.81664ZM32.7036 4.81664C32.6722 4.73223 32.6201 4.65706 32.552 4.59805C32.484 4.53904 32.4022 4.49807 32.3142 4.47893C32.2262 4.45978 32.1348 4.46306 32.0484 4.48846C31.962 4.51387 31.8833 4.56059 31.8197 4.62432L27.7677 8.67642M32.7036 4.81664L27.7677 8.67642M2.75102 22.4976C2.75099 22.4976 2.75096 22.4976 2.75093 22.4977C1.89478 23.3563 1.30274 24.4423 1.04497 25.6271C0.787181 26.8119 0.874494 28.0458 1.29656 29.1825L1.29658 29.1825C1.32798 29.267 1.38009 29.3421 1.44813 29.4011C1.51617 29.4601 1.59795 29.5011 1.68596 29.5203C1.77397 29.5394 1.86538 29.5361 1.95178 29.5107C2.03819 29.4853 2.11682 29.4386 2.18046 29.3749L6.23149 25.3228L8.12082 25.878L8.67606 27.7672L4.62379 31.8191L2.82183 22.5682L2.75102 22.4976ZM2.75102 22.4976L3.02098 22.2261L3.02116 22.2259C3.77563 21.4711 4.71251 20.9242 5.7408 20.6384C6.75087 20.3577 7.81541 20.3382 8.83454 20.5814L20.5823 8.83414C20.3393 7.81525 20.3587 6.75099 20.6394 5.74116C20.9251 4.71312 21.4718 3.77642 22.2264 3.02202L22.2265 3.02189L22.4978 2.75164M2.75102 22.4976L22.4978 2.75164M27.7677 8.67642L25.8786 8.1212L25.3233 6.23195L29.3754 2.1801L27.7677 8.67642ZM22.4978 2.75164C23.3564 1.89534 24.4424 1.30311 25.6273 1.04516C26.8121 0.787208 28.0461 0.874337 29.183 1.29622L29.183 1.29625C29.2675 1.32765 29.3426 1.37976 29.4016 1.4478C29.4607 1.51583 29.5016 1.59761 29.5208 1.68562C29.5399 1.77362 29.5366 1.86503 29.5112 1.95143C29.4858 2.03781 29.4391 2.11642 29.3754 2.18005L22.4978 2.75164ZM25.1556 12.303L25.1556 12.3029C25.0629 12.2758 24.9646 12.274 24.8711 12.2979C24.7775 12.3218 24.6921 12.3704 24.6239 12.4387L12.4378 24.6235L12.5085 24.6943L12.4377 24.6235C12.3695 24.6918 12.3208 24.7772 12.297 24.8708C12.2731 24.9643 12.2748 25.0626 12.302 25.1552L12.302 25.1553C12.5618 26.037 12.5792 26.9724 12.3523 27.8631C12.1254 28.7538 11.6626 29.5669 11.0127 30.2169L10.7415 30.4881C10.1116 31.116 9.33293 31.5742 8.4781 31.82C7.68199 32.0489 6.84397 32.0866 6.03206 31.9311L9.66185 28.3018L9.66188 28.3017C9.73013 28.2334 9.77873 28.148 9.80257 28.0544C9.82641 27.9609 9.8246 27.8626 9.79735 27.77L9.06896 25.2934L9.06892 25.2932C9.04346 25.2072 8.99688 25.1289 8.93342 25.0654C8.86996 25.0019 8.79164 24.9554 8.70559 24.9299L8.70542 24.9299L6.22994 24.2023L6.22986 24.2022C6.13726 24.1751 6.03905 24.1733 5.94553 24.1972C5.85202 24.221 5.76662 24.2695 5.69829 24.3377L5.69821 24.3377L2.0674 27.9667C1.91196 27.1548 1.94965 26.3168 2.17855 25.5207C2.42433 24.6659 2.88256 23.8873 3.51052 23.2574L3.78147 22.9862C4.43159 22.336 5.24496 21.873 6.13598 21.646C7.027 21.419 7.96274 21.4364 8.84474 21.6962L8.84502 21.6963C8.93763 21.7233 9.0358 21.7249 9.12927 21.7011C9.22274 21.6772 9.30809 21.6287 9.37643 21.5606L9.37655 21.5605L21.5614 9.37564L21.5616 9.37548C21.6295 9.30728 21.6778 9.22209 21.7015 9.12881C21.7253 9.03553 21.7235 8.93759 21.6964 8.84523L21.6964 8.84511C21.4367 7.96336 21.4195 7.02794 21.6464 6.13721C21.8733 5.24647 22.336 4.43333 22.9859 3.78328L23.2571 3.51237C23.8871 2.88455 24.6657 2.42641 25.5205 2.18065C26.3165 1.95177 27.1545 1.91402 27.9663 2.0693L24.3376 5.69742L24.4083 5.76814L24.3376 5.69743C24.2693 5.76571 24.2206 5.8511 24.1968 5.94465C24.1729 6.0382 24.1746 6.13646 24.2018 6.22911L24.2018 6.22917L24.9297 8.70439C24.9549 8.79082 25.0015 8.86952 25.0651 8.93328C25.1287 8.99703 25.2073 9.0438 25.2936 9.06929L25.2938 9.06932L27.7705 9.79693L27.7707 9.79699C27.8633 9.82396 27.9614 9.82563 28.0548 9.80182C28.1483 9.77802 28.2336 9.72962 28.302 9.66164L28.3022 9.66143L31.9315 6.03201C32.0871 6.84395 32.0495 7.68204 31.8207 8.47823C31.5749 9.33312 31.1167 10.1119 30.4886 10.7418L30.2177 11.013C30.2177 11.013 30.2177 11.013 30.2177 11.013C29.5676 11.6629 28.7545 12.1256 27.8637 12.3526C26.9729 12.5796 26.0375 12.5625 25.1556 12.303Z" fill="#294A70" stroke="#294A70" stroke-width="0.2"/>
</svg>
