<svg width="20" height="16" viewBox="0 0 20 16" fill="none" xmlns="http://www.w3.org/2000/svg">
<path fill-rule="evenodd" clip-rule="evenodd" d="M9.71114 4.25628L9.75452 4.94828L9.03191 4.86354C6.40185 4.53875 4.10414 3.43708 2.15323 1.58695L1.19944 0.668954L0.953794 1.34689C0.433511 2.85808 0.765928 4.45401 1.84974 5.52734C2.4278 6.12054 2.29771 6.20528 1.3006 5.85221C0.953793 5.73921 0.650301 5.65448 0.621378 5.69688C0.520214 5.79568 0.867092 7.08094 1.14166 7.58934C1.51739 8.29554 2.28325 8.9876 3.12142 9.39714L3.82957 9.722L2.9914 9.73614C2.18209 9.73614 2.15323 9.75027 2.23993 10.0468C2.52897 10.9649 3.67056 11.9393 4.94231 12.3631L5.83825 12.6597L5.05786 13.1116C3.90181 13.7613 2.54343 14.1285 1.18498 14.1567C0.534675 14.1709 0 14.2273 0 14.2697C0 14.4109 1.76304 15.2019 2.78907 15.5126C5.86717 16.4306 9.52327 16.0351 12.269 14.4675C14.2199 13.3517 16.1708 11.1343 17.0812 8.9876C17.5725 7.84361 18.0639 5.75334 18.0639 4.75061C18.0639 4.10088 18.1072 4.01615 18.9165 3.23942C19.3933 2.78742 19.8414 2.29315 19.9281 2.15188C20.0726 1.88355 20.0581 1.88355 19.3211 2.12362C18.0927 2.54735 17.9193 2.49082 18.5263 1.85528C18.9743 1.40335 19.509 0.58422 19.509 0.344087C19.509 0.301754 19.2922 0.372354 19.0465 0.499487C18.7864 0.640687 18.2084 0.852553 17.7749 0.979619L16.9945 1.21975L16.2864 0.753687C15.8962 0.499487 15.3471 0.21702 15.058 0.13222C14.321 -0.0655126 13.1938 -0.0372455 12.5291 0.188754C10.7227 0.824286 9.58105 2.46262 9.71114 4.25628Z" fill="#294A70"/>
</svg>
