<svg width="23" height="12" viewBox="0 0 23 12" fill="none" xmlns="http://www.w3.org/2000/svg">
<path fill-rule="evenodd" clip-rule="evenodd" d="M12.2358 11.9498C12.2358 11.9498 12.638 11.9076 12.844 11.6988C13.0325 11.5075 13.026 11.1463 13.026 11.1463C13.026 11.1463 13.0009 9.46018 13.8304 9.21121C14.6479 8.96638 15.6976 10.8418 16.8116 11.563C17.6531 12.1083 18.2918 11.9889 18.2918 11.9889L21.2686 11.9498C21.2686 11.9498 22.8251 11.8593 22.0872 10.704C22.0261 10.6093 21.6566 9.84904 19.8745 8.28737C18.0073 6.65264 18.258 6.91702 20.5056 4.08892C21.8746 2.36674 22.4218 1.31534 22.2507 0.86574C22.0883 0.435697 21.0811 0.549937 21.0811 0.549937L17.7304 0.569491C17.7304 0.569491 17.482 0.537548 17.2978 0.641476C17.1179 0.743329 17.0012 0.980984 17.0012 0.980984C17.0012 0.980984 16.4715 2.31324 15.7641 3.44694C14.2719 5.83782 13.6757 5.96438 13.4315 5.81626C12.8636 5.46952 13.0053 4.42535 13.0053 3.68359C13.0053 1.36576 13.3781 0.399736 12.2805 0.149692C11.9164 0.066389 11.6483 0.0118803 10.7163 0.00257234C9.52061 -0.00874459 8.50911 0.00672476 7.93574 0.271099C7.55424 0.447014 7.25993 0.840026 7.43982 0.86266C7.66107 0.89045 8.1625 0.990226 8.42847 1.33181C8.77181 1.7731 8.75983 2.76283 8.75983 2.76283C8.75983 2.76283 8.95706 5.49115 8.29872 5.82959C7.84751 6.06215 7.22838 5.58785 5.89744 3.41814C5.21619 2.30707 4.70174 1.07869 4.70174 1.07869C4.70174 1.07869 4.60257 0.849267 4.42491 0.725852C4.21014 0.576656 3.91039 0.530383 3.91039 0.530383L0.726534 0.549937C0.726534 0.549937 0.248019 0.562258 0.0725194 0.758731C-0.0833411 0.932636 0.0605406 1.29371 0.0605406 1.29371C0.0605406 1.29371 2.5534 6.79876 5.37644 9.57335C7.9652 12.1165 10.9038 11.9498 10.9038 11.9498H12.2358Z" fill="#294A70"/>
</svg>
