<svg width="24" height="32" viewBox="0 0 24 32" fill="none" xmlns="http://www.w3.org/2000/svg">
<path d="M1.90735e-06 14.3169C-0.000612259 13.4813 0.209345 12.6589 0.610781 11.9244C1.01222 11.1898 1.5924 10.5665 2.29857 10.111C3.00475 9.65543 3.81453 9.38221 4.65427 9.31614C5.49401 9.25006 6.33709 9.39322 7.10684 9.73261C6.38894 8.94374 5.8511 8.01053 5.53004 6.99667C5.48631 6.82614 5.50938 6.6455 5.59461 6.49118C5.67984 6.33685 5.82088 6.22031 5.98931 6.16504C6.44112 6.03609 6.91185 5.98478 7.38112 6.01333C7.11908 4.9003 7.06978 3.74839 7.23577 2.61734C7.26592 2.43941 7.36499 2.28021 7.51185 2.17373C7.6587 2.06726 7.84169 2.02193 8.02177 2.04743C8.66403 2.15194 9.27017 2.4127 9.78597 2.80638C10.1695 1.8168 10.7642 0.921162 11.5293 0.180843C11.6586 0.0644701 11.8269 0 12.0014 0C12.176 0 12.3443 0.0644701 12.4735 0.180843C13.2386 0.921162 13.8333 1.8168 14.2169 2.80638C14.7327 2.4127 15.3388 2.15194 15.9811 2.04743C16.161 2.02226 16.3438 2.06773 16.4904 2.17417C16.6371 2.28061 16.736 2.43961 16.7663 2.61734C16.9325 3.74838 16.8832 4.90032 16.6209 6.01333C17.0902 5.985 17.5609 6.03631 18.0128 6.16504C18.1812 6.22031 18.3222 6.33685 18.4075 6.49118C18.4927 6.6455 18.5158 6.82614 18.472 6.99667C18.1511 8.0105 17.6134 8.94371 16.8956 9.73261C17.5303 9.45325 18.2163 9.30662 18.9107 9.30186C19.6051 9.29709 20.293 9.43431 20.9316 9.70494C21.5702 9.97556 22.1457 10.3738 22.6222 10.8748C23.0987 11.3758 23.466 11.9688 23.7012 12.6169C23.9364 13.2649 24.0345 13.9541 23.9893 14.6414C23.944 15.3287 23.7565 15.9994 23.4384 16.6116C23.1203 17.2238 22.6784 17.7645 22.1402 18.1998C21.6021 18.6351 20.9793 18.9558 20.3107 19.1418C20.5079 19.7818 20.5733 20.4546 20.5028 21.1201C20.4323 21.7856 20.2274 22.4303 19.9004 23.0156C19.5734 23.6009 19.1309 24.115 18.5993 24.5271C18.0678 24.9392 17.458 25.2409 16.8063 25.4143C17.0566 26.1678 17.123 26.9695 17.0003 27.7534C16.8775 28.5374 16.5691 29.2813 16.1002 29.924C15.6314 30.5668 15.0156 31.0901 14.3032 31.451C13.5909 31.8118 12.8025 32 12.0026 32C11.2028 32 10.4143 31.8118 9.70202 31.451C8.98971 31.0901 8.37385 30.5668 7.90501 29.924C7.43617 29.2813 7.12772 28.5374 7.00498 27.7534C6.88224 26.9695 6.94871 26.1678 7.19894 25.4143C6.54673 25.2419 5.93627 24.9408 5.40408 24.5291C4.87189 24.1173 4.4289 23.6033 4.1016 23.0178C3.7743 22.4323 3.56941 21.7873 3.4992 21.1215C3.42899 20.4556 3.49489 19.7826 3.69296 19.1426C2.63165 18.8467 1.69671 18.2153 1.03018 17.3443C0.363642 16.4733 0.00193405 15.4103 1.90735e-06 14.3169ZM12.0014 16.884C12.7245 16.884 13.4314 16.6713 14.0327 16.2729C14.6339 15.8744 15.1025 15.308 15.3792 14.6454C15.656 13.9828 15.7284 13.2537 15.5873 12.5502C15.4462 11.8468 15.098 11.2006 14.5867 10.6935C14.0754 10.1863 13.4239 9.84094 12.7147 9.70102C12.0055 9.56109 11.2704 9.63291 10.6023 9.90738C9.93422 10.1818 9.36321 10.6466 8.96147 11.243C8.55973 11.8393 8.34531 12.5405 8.34531 13.2577C8.34637 14.2191 8.7319 15.1409 9.41733 15.8207C10.1028 16.5006 11.0321 16.883 12.0014 16.884ZM15.7472 7.50621C15.6214 7.53124 15.491 7.52152 15.3704 7.47812C15.2497 7.43472 15.1434 7.3593 15.063 7.26007C14.9825 7.16085 14.9311 7.04164 14.9143 6.91542C14.8975 6.78921 14.916 6.66085 14.9677 6.54432C15.3389 5.63115 15.5055 4.6488 15.4558 3.66541C15.051 3.88935 14.6895 4.1826 14.3879 4.53158C14.303 4.63746 14.1889 4.71648 14.0594 4.75897C13.93 4.80146 13.7909 4.80556 13.6591 4.77078C13.5273 4.736 13.4087 4.66384 13.3176 4.56316C13.2266 4.46247 13.1672 4.33763 13.1466 4.20394C12.9814 3.29756 12.5874 2.44746 12.0014 1.73289C11.4153 2.44737 11.0211 3.2975 10.8559 4.20394C10.8353 4.33763 10.7759 4.46247 10.6848 4.56316C10.5938 4.66384 10.4751 4.736 10.3434 4.77078C10.2116 4.80556 10.0725 4.80146 9.94302 4.75897C9.81357 4.71648 9.69944 4.63746 9.6146 4.53158C9.31248 4.18321 8.95103 3.89017 8.54671 3.6658C8.49713 4.64906 8.66368 5.63125 9.03481 6.54432C9.0865 6.66085 9.10495 6.78921 9.08814 6.91542C9.07134 7.04164 9.01993 7.16085 8.93951 7.26007C8.85909 7.3593 8.75275 7.43472 8.63209 7.47812C8.51142 7.52152 8.38106 7.53124 8.25521 7.50621C7.90444 7.44061 7.54864 7.405 7.19173 7.39977C7.5832 8.16175 8.11252 8.84588 8.75332 9.41807C9.66228 8.65811 10.8128 8.24129 12.0016 8.24129C13.1904 8.24129 14.341 8.65811 15.2499 9.41807C15.8874 8.84406 16.4147 8.16025 16.8063 7.39977C16.4509 7.40518 16.0966 7.44079 15.7472 7.50621ZM22.6014 14.3169C22.602 13.6391 22.4109 12.9748 22.0499 12.3994C21.6888 11.8239 21.1723 11.3605 20.5589 11.0617C19.9456 10.7629 19.26 10.6407 18.5802 10.7091C17.9004 10.7774 17.2535 11.0335 16.713 11.4483C17.036 12.2656 17.1353 13.1531 17.0007 14.0207C16.8661 14.8883 16.5024 15.7052 15.9467 16.3884C16.3911 17.0222 17.0279 17.4987 17.7644 17.7485C18.5009 17.9983 19.2986 18.0084 20.0412 17.7772C20.7839 17.546 21.4327 17.0857 21.8932 16.4633C22.3537 15.8409 22.6018 15.0889 22.6014 14.3169ZM19.1287 20.5803C19.1297 20.1543 19.0545 19.7315 18.9065 19.3316C18.1327 19.327 17.3704 19.1457 16.6786 18.8018C15.9868 18.458 15.3841 17.9607 14.9172 17.3487C14.3342 17.7604 13.6692 18.0436 12.9668 18.1795C13.3881 18.941 13.6013 19.7984 13.5854 20.6669C13.5696 21.5353 13.3251 22.3845 12.8763 23.1303C13.2147 23.4725 13.6188 23.744 14.0647 23.9289C14.5106 24.1137 14.9893 24.2082 15.4726 24.2066C16.4419 24.2056 17.3712 23.8232 18.0567 23.1433C18.7421 22.4635 19.1276 21.5417 19.1287 20.5803ZM12.0014 30.58C12.6005 30.5807 13.1905 30.4352 13.7195 30.1563C14.2485 29.8775 14.7002 29.4738 15.0348 28.981C15.3694 28.4881 15.5766 27.9212 15.6383 27.3302C15.6999 26.7392 15.614 26.1422 15.3881 25.5919C14.1249 25.5744 12.9151 25.0838 12.0014 24.2185C11.0864 25.0818 9.87747 25.5721 8.61478 25.5923C8.3892 26.1426 8.30351 26.7394 8.36525 27.3303C8.42699 27.9212 8.63427 28.488 8.96883 28.9807C9.3034 29.4735 9.75498 29.877 10.2838 30.1559C10.8126 30.4348 11.4025 30.5805 12.0014 30.58ZM8.52949 24.2058C9.22905 24.2065 9.91409 24.008 10.5032 23.6337C11.0922 23.2595 11.5605 22.7253 11.8524 22.0947C12.1443 21.4641 12.2474 20.7637 12.1495 20.0767C12.0516 19.3896 11.7569 18.7449 11.3003 18.2192C10.5021 18.1092 9.74221 17.8104 9.08486 17.3479C8.61812 17.9601 8.01547 18.4574 7.32364 18.8013C6.63182 19.1452 5.86942 19.3264 5.09559 19.3308C4.8937 19.879 4.82804 20.4673 4.90418 21.046C4.98033 21.6247 5.19603 22.1766 5.533 22.655C5.86998 23.1334 6.31829 23.5241 6.83992 23.7941C7.36155 24.0641 7.94112 24.2053 8.52949 24.2058ZM4.69158 17.9238H4.70199C4.81891 17.9349 4.93743 17.9416 5.05755 17.9416C5.64692 17.9424 6.22769 17.8014 6.75004 17.5307C7.27239 17.2599 7.72074 16.8675 8.05661 16.3872C7.50071 15.704 7.13695 14.8871 7.00228 14.0194C6.86761 13.1517 6.96682 12.2641 7.28983 11.4467C6.84195 11.1036 6.31987 10.8684 5.76472 10.7595C5.20957 10.6507 4.63652 10.6712 4.09072 10.8194C3.54491 10.9676 3.04126 11.2395 2.61944 11.6137C2.19762 11.9878 1.86916 12.454 1.65993 12.9755C1.4507 13.497 1.36643 14.0596 1.41374 14.6189C1.46105 15.1783 1.63866 15.719 1.93257 16.1987C2.22648 16.6783 2.62867 17.0837 3.10744 17.3829C3.58622 17.6822 4.12851 17.867 4.69158 17.923V17.9238Z" fill="#294A70"/>
</svg>
