<svg width="23" height="15" viewBox="0 0 23 15" fill="none" xmlns="http://www.w3.org/2000/svg">
<path fill-rule="evenodd" clip-rule="evenodd" d="M20.4316 0.458582C20.8958 0.58123 21.319 0.820006 21.6591 1.15119C21.9992 1.48238 22.2444 1.89445 22.3704 2.34647C22.842 4.02348 22.8241 7.51741 22.8241 7.51741C22.8241 7.51741 22.8241 10.9939 22.3704 12.6703C22.2444 13.1223 21.9992 13.5344 21.6591 13.8655C21.319 14.1967 20.8958 14.4355 20.4316 14.5582C18.7101 15 11.8242 15 11.8242 15C11.8242 15 4.95608 15 3.21671 14.5407C2.75226 14.4183 2.3288 14.1796 1.98844 13.8484C1.64808 13.5172 1.40266 13.105 1.27659 12.6529C0.824219 10.9933 0.824219 7.49933 0.824219 7.49933C0.824219 7.49933 0.824219 4.02281 1.27728 2.34647C1.53097 1.4293 2.29203 0.687539 3.21602 0.440507C4.93751 0 11.8242 0 11.8242 0C11.8242 0 18.7108 -3.99031e-08 20.4323 0.458582H20.4316ZM15.3579 7.5L9.63106 10.7114V4.28791L15.3579 7.5Z" fill="#294A70"/>
</svg>
